<svg id="Capa_1" enable-background="new 0 0 507.774 507.774" height="512" viewBox="0 0 507.774 507.774" width="512" xmlns="http://www.w3.org/2000/svg"><g><g><g><g><circle cx="253.887" cy="36.253" fill="#c09fde" r="28.753"/></g><g><path d="m269.935 48.958c-15.88 0-28.753-12.873-28.753-28.753 0-3.766.732-7.36 2.049-10.656-10.602 4.235-18.096 14.591-18.096 26.705 0 15.88 12.873 28.753 28.753 28.753 12.113 0 22.47-7.495 26.705-18.097-3.298 1.316-6.892 2.048-10.658 2.048z" fill="#a070ce"/></g><g><path d="m403.97 215.741c-.071-82.809-67.22-149.902-150.03-149.902-82.825 0-149.981 67.117-150.03 149.942z" fill="#cfdbfa"/></g><g><path d="m127.027 193.329c.021-36.384 12.996-69.733 34.556-95.697-35.083 27.443-57.644 70.158-57.672 118.15l300.06-.041c-.007-7.63-.587-15.126-1.692-22.449z" fill="#9eb6f4"/></g><g><path d="m103.887 215.904h60.083v74.851h-60.083z" fill="#d15573"/></g><g><path d="m124.767 269.875v-53.971h-20.88v74.851h60.083v-20.88z" fill="#c21d44"/></g><g><path d="m343.887 215.904h60.083v74.851h-60.083z" fill="#d15573"/></g><g><path d="m364.767 269.875v-53.971h-20.88v74.851h60.083v-20.88z" fill="#c21d44"/></g><g><path d="m403.97 365.797h-15.775c-24.471 0-44.309-19.838-44.309-44.309v-30.543h60.083v74.852z" fill="#c09fde"/></g><g><path d="m388.195 344.606c-.061 0-.122 0-.183 0-11.072-.045-20.317-8.681-21.316-19.708-1.067-11.777.044-25.569-.325-33.952h-22.484c-.053 5.989.038 24.267 0 30.543 0 24.471 19.838 44.309 44.309 44.309h15.774v-.506-20.686z" fill="#a070ce"/></g><g><path d="m103.887 365.797h15.775c24.471 0 44.309-19.838 44.309-44.309v-30.543h-60.083v74.852z" fill="#c09fde"/></g><g><path d="m126.291 343.344v-52.398h-22.404v74.851c4.842-.105 17.805.345 22.404-.495 0 0 37.679-5.079 37.679-43.813v-21.957c0 22.217-16.353 40.612-37.679 43.812z" fill="#a070ce"/></g><g><path d="m436.887 470.84c0 5.465-7.058 9.087-9.612 13.5-2.634 4.553-2.331 12.448-6.884 15.082-4.413 2.553-11.039-1.582-16.504-1.582s-12.092 4.135-16.505 1.582c-4.553-2.634-4.25-10.53-6.884-15.082-2.553-4.413-9.611-8.034-9.611-13.5 0-5.465 7.058-9.087 9.612-13.5 2.634-4.553 2.331-12.448 6.884-15.082 4.413-2.553 11.039 1.582 16.504 1.582s12.092-4.135 16.505-1.582c4.553 2.634 4.25 10.53 6.884 15.082 2.553 4.413 9.611 8.035 9.611 13.5z" fill="#f8e868"/></g><g><path d="m136.887 470.84c0 5.465-7.058 9.087-9.612 13.5-2.634 4.553-2.331 12.448-6.884 15.082-4.413 2.553-11.039-1.582-16.504-1.582s-12.092 4.135-16.505 1.582c-4.553-2.634-4.25-10.53-6.884-15.082-2.553-4.413-9.611-8.034-9.611-13.5 0-5.465 7.058-9.087 9.612-13.5 2.634-4.553 2.331-12.448 6.884-15.082 4.413-2.553 11.039 1.582 16.504 1.582s12.092-4.135 16.505-1.582c4.553 2.634 4.25 10.53 6.884 15.082 2.553 4.413 9.611 8.035 9.611 13.5z" fill="#f8e868"/></g><g><g><path d="m123.419 479.521c-6.311 2.931-18.002-4.82-25.34-1.362-9.629-8.933.395-13.667 5.59-20.819 2.464-4.261 2.359-11.447 6.066-14.511-7.428 3.482-16.013-3.507-22.353-.572-5.636 3.609-3.852 13.83-9.422 18.243-12.865 11.508-5.883 13.482 2.539 23.84 2.633 4.553 2.33 12.448 6.883 15.083 6.307 2.95 14.824-4.046 22.354-.571 14.938 4.927 13.035-3.883 17.539-14.512z" fill="#e8ab4c"/></g></g><g><path d="m438.227 470.84c0 5.465-7.058 9.087-9.612 13.5-2.634 4.553-2.331 12.448-6.884 15.082-4.413 2.553-11.039-1.582-16.504-1.582s-12.092 4.135-16.505 1.582c-4.553-2.634-4.25-10.53-6.884-15.082-2.553-4.413-9.611-8.034-9.611-13.5 0-5.465 7.058-9.087 9.612-13.5 2.634-4.553 2.331-12.448 6.884-15.082 4.413-2.553 11.039 1.582 16.504 1.582s12.092-4.135 16.505-1.582c4.553 2.634 4.25 10.53 6.884 15.082 2.553 4.413 9.611 8.035 9.611 13.5z" fill="#f8e868"/></g><g><g><path d="m424.759 479.521c-6.311 2.931-18.002-4.82-25.34-1.362-9.629-8.933.395-13.667 5.59-20.819 2.464-4.261 2.359-11.447 6.066-14.511-7.428 3.482-16.013-3.507-22.353-.572-5.636 3.609-3.852 13.83-9.422 18.243-12.865 11.508-5.883 13.482 2.539 23.84 2.633 4.553 2.331 12.448 6.883 15.083 6.307 2.95 14.824-4.046 22.354-.571 14.938 4.927 13.035-3.883 17.539-14.512z" fill="#e8ab4c"/></g></g><g><path d="m223.887 111.053h60v60h-60z" fill="#f8e868" transform="matrix(.707 .707 -.707 .707 174.101 -138.212)"/></g><g><path d="m240.214 141.052 28.049-28.049-14.376-14.377-42.426 42.426 42.426 42.427 14.376-14.377z" fill="#e8ab4c"/></g><g><path d="m246.387 133.329h15v15h-15z" fill="#fff"/></g><g><path d="m321.387 178.329h15v15h-15z" fill="#fff"/></g><g><path d="m366.387 313.804h15v15h-15z" fill="#fff"/></g><g><path d="m126.387 313.804h15v15h-15z" fill="#fff"/></g><g><path d="m171.387 178.329h15v15h-15z" fill="#fff"/></g><g><path d="m358.887 238.329h30v30h-30z" fill="#e8ab4c" transform="matrix(.707 .707 -.707 .707 288.64 -190.18)"/></g><g><path d="m118.887 238.329h30v30h-30z" fill="#e8ab4c" transform="matrix(.707 .707 -.707 .707 218.345 -20.474)"/></g></g></g><g><path d="m276.387 208.404h15v15h-15z"/><path d="m432.377 449.29c-4.677-17.207-12.531-15.938-20.907-14.356v-219.199c-.065-77.668-56.672-142.368-130.771-155.11 5.86-6.442 9.436-14.997 9.436-24.372 0-19.99-16.261-36.253-36.248-36.253-5.716 0-11.19 1.295-16.27 3.85l6.738 13.4c2.971-1.493 6.177-2.25 9.531-2.25 11.716 0 21.248 9.534 21.248 21.253s-9.532 21.253-21.248 21.253-21.248-9.534-21.248-21.253c0-4.156 1.197-8.18 3.464-11.637l-12.545-8.224c-3.872 5.907-5.919 12.774-5.919 19.86 0 9.382 3.583 17.942 9.45 24.386-74.071 12.782-130.632 77.48-130.678 155.139v218.758c-13.783-3.422-19.521 6.259-22.404 19.05-3.937 4.94-10.555 8.73-10.619 17.255-.106 10.91 10.412 12.644 12.01 21.549 3.374 16.861 14.641 16.978 28.49 12.951 3.985.334 8.45 2.516 13.099 2.406 11.247.699 14.699-12.005 16.782-19.651 3.937-4.94 10.555-8.73 10.619-17.255.107-10.91-10.412-12.645-12.009-21.55-4.716-17.351-12.533-15.916-20.99-14.316v-61.506c8.287.179 17.272-.01 25.051-3.008l-5.014-14.137c-6.045 2.4-13.647 2.213-20.098 2.145l.035-60.213h45.025v22.713c0 10.652-4.556 20.84-12.499 27.951l10.006 11.176c11.117-9.953 17.493-24.213 17.493-39.126v-97.563h90v-15h-149.783c1.304-25.14 9.162-48.574 21.883-68.635l23.247 21.467 21.921-20.024 22.011 20.11 10.45-10.006 42.77 42.77 42.757-42.756 10.436 9.992 22.012-20.11 21.921 20.024 23.33-21.544c12.751 20.078 20.628 43.541 21.934 68.712h-89.889v15h30v97.563c0 28.949 17.777 52.5 60.211 52.5v61.125c-13.935-3.572-19.693 6.138-22.592 18.992-3.937 4.94-10.555 8.73-10.619 17.255-.106 10.91 10.412 12.644 12.01 21.549 3.374 16.861 14.641 16.978 28.49 12.951 3.985.334 8.45 2.516 13.099 2.406 11.247.699 14.699-12.005 16.782-19.651 3.937-4.94 10.555-8.73 10.619-17.255.106-10.911-10.412-12.646-12.01-21.551zm-303.093 21.55c-7.246 6.854-10.5 12.065-12.709 21.904-4.105-.628-8.113-2.449-12.688-2.404-4.576-.045-8.583 1.776-12.689 2.404-2.208-9.831-5.455-15.045-12.708-21.904 7.246-6.854 10.5-12.065 12.709-21.904 8.396 2.807 16.979 2.807 25.378 0 2.207 9.831 5.454 15.045 12.707 21.904zm222.103-208.191 20.605 20.606h-20.605zm45.107-18.532-20.712-20.713h20.694zm-12.001 9.212-10.606 10.606-10.606-10.606 10.606-10.606zm12.016 9.197.018 20.728h-20.745zm-285.115-18.523.012-20.599h20.586zm22.493-1.28 10.606 10.606-10.606 10.606-10.606-10.606zm-22.504 19.922 20.609 20.61h-20.621zm24.399 20.609 20.605-20.606v20.606zm20.605-39.244-20.605-20.606h20.605zm129.32-102.957-31.82 31.82-31.82-31.82 31.82-31.82zm65.25-.183-21.866-19.976-21.771 19.89-53.433-52.764-53.461 52.765-21.771-19.89-21.866 19.976-14.541-13.428c26.134-32.938 66.492-54.103 111.693-54.103 45.163 0 85.497 21.137 111.633 54.033zm21.035 82.534-20.605 20.606v-20.606zm-20.605 97.563v-22.713h45.153l.051 60.213c-31.018 0-45.204-16.822-45.204-37.5zm65.188 171.777c-4.105-.628-8.113-2.449-12.688-2.404-4.576-.045-8.583 1.776-12.689 2.404-2.208-9.831-5.455-15.045-12.708-21.904 7.246-6.854 10.5-12.065 12.709-21.904 8.396 2.807 16.979 2.807 25.378 0 2.208 9.831 5.455 15.045 12.708 21.904-7.246 6.853-10.501 12.065-12.71 21.904z"/></g></g></svg>